<?xml version="1.0" encoding="UTF-8" standalone="no" ?>
<!DOCTYPE svg PUBLIC "-//W3C//DTD SVG 1.1//EN" "http://www.w3.org/Graphics/SVG/1.1/DTD/svg11.dtd">
<svg xmlns="http://www.w3.org/2000/svg" xmlns:xlink="http://www.w3.org/1999/xlink" version="1.1" width="60" height="60" viewBox="0 0 60 60" xml:space="preserve">
<desc>Created with Fabric.js 5.2.4</desc>
<defs>
</defs>
<rect x="0" y="0" width="100%" height="100%" fill="transparent"></rect>
<g transform="matrix(1 0 0 1 30 30)" id="f65595ef-e5a7-48bf-b967-39f4b2c46a0f"  >
<rect style="stroke: none; stroke-width: 1; stroke-dasharray: none; stroke-linecap: butt; stroke-dashoffset: 0; stroke-linejoin: miter; stroke-miterlimit: 4; fill: rgb(255,255,255); fill-rule: nonzero; opacity: 1; visibility: hidden;" vector-effect="non-scaling-stroke"  x="-30" y="-30" rx="0" ry="0" width="60" height="60" />
</g>
<g transform="matrix(Infinity NaN NaN Infinity 0 0)" id="8a306170-9ac4-4422-8a02-2f46c3e42b02"  >
</g>
<g transform="matrix(0.06 0 0 0.06 90 90)" id="svg_1"  >
<path style="stroke: rgb(0,0,0); stroke-width: 0; stroke-dasharray: none; stroke-linecap: butt; stroke-dashoffset: 0; stroke-linejoin: miter; stroke-miterlimit: 4; fill: rgb(21,38,62); fill-rule: nonzero; opacity: 1;" vector-effect="non-scaling-stroke"  transform=" translate(-29.83, -30.11)" d="M 1.50477 31.11513 L 10.339210000000001 31.11513 C 11.169166315483277 31.117792168889228 11.841317831110775 31.789943684516725 11.843980000000002 32.6199 L 11.843980000000002 50.67711 C 11.841317831110777 51.50706631548327 11.169166315483277 52.179217831110776 10.339210000000001 52.18188 L 1.5047700000000006 52.18188 C 0.6748136845167253 52.179217831110776 0.002662168889226768 51.50706631548327 8.881784197001252e-16 50.67711 L 6.661338147750939e-16 32.6199 C 0.0026621688892264216 31.789943684516725 0.6748136845167251 31.117792168889228 1.5047700000000004 31.11513 z M 13.79532 50.41498 L 13.79532 32.82862 L 23.18798 32.82862 C 26.54701 33.43053 29.90604 35.25566 33.26021 37.36719 L 39.41519 37.36719 C 42.196580000000004 37.53223 43.65766 40.35731 40.95394 42.22128 C 38.793870000000005 43.80371 35.949380000000005 43.71148 33.032070000000004 43.45422 C 31.017620000000004 43.35228 30.930250000000004 46.05601 33.032070000000004 46.06572 C 33.760180000000005 46.12397 34.5514 45.95408 35.24553 45.94922 C 38.8861 45.94922 41.88592 45.250229999999995 43.72077 42.37661 L 44.65761 40.18742 L 53.807559999999995 35.64885 C 58.38981999999999 34.14408 61.642059999999994 38.93507 58.26846999999999 42.264970000000005 C 51.884713131601984 46.925336575418825 45.05576516988515 50.94303372904115 37.88129999999999 54.259420000000006 C 32.83304999999999 57.332060000000006 27.779939999999996 57.22527000000001 22.731689999999997 54.259420000000006 L 13.800169999999996 50.41498000000001 L 13.795319999999997 50.41498000000001 z M 30.09535 7.417470000000002 C 30.039448831771477 7.371543357667499 29.975153037642613 7.33692123916612 29.90604 7.315530000000002 C 29.854918848844815 7.303878320613279 29.801831151155188 7.303878320613279 29.75071 7.315530000000002 C 29.61332063096675 7.329339386218699 29.486476654934183 7.395369130310605 29.39636 7.499990000000001 L 28.168280000000003 8.956220000000002 C 27.942603808516843 9.227663153125578 27.557041815359263 9.302745486008327 27.246000000000002 9.135820000000002 C 27.08096 9.048450000000003 26.90621 8.965930000000002 26.73147 8.893120000000003 C 26.55673 8.820310000000005 26.348000000000003 8.742640000000003 26.16354 8.679540000000003 C 25.97908 8.616440000000003 25.78978 8.563040000000003 25.571340000000003 8.499940000000002 C 25.352900000000005 8.436840000000002 25.168450000000004 8.388300000000003 24.979140000000005 8.344610000000003 C 24.656888516798077 8.262760605840784 24.427427326557737 7.977909561803462 24.416070000000005 7.645620000000003 L 24.231610000000003 5.645740000000003 C 24.223923422346807 5.574966208069355 24.204224419495407 5.5060213889909875 24.173360000000002 5.441870000000002 C 24.143522621230005 5.389541889796463 24.105876134772164 5.342072381567601 24.06172 5.301100000000003 C 24.017824869646088 5.260801164693236 23.964354876515344 5.232394908122393 23.906390000000002 5.218580000000003 C 23.84089457576164 5.203609474821892 23.77286542423836 5.203609474821892 23.70737 5.218580000000003 L 21.12985 5.470990000000003 C 21.06095212913444 5.4802593035796 20.99385295964336 5.49989816712525 20.93083 5.529240000000003 C 20.867708601515925 5.563686485284355 20.81170307876553 5.609806883957441 20.76579 5.665150000000003 C 20.72752751184006 5.713025793432385 20.69795639143644 5.7672400782698805 20.67842 5.825330000000003 L 20.67842 5.825330000000003 C 20.66843490624487 5.878256504934197 20.66843490624487 5.932583495065809 20.67842 5.985510000000003 L 20.85802 7.873750000000003 C 20.89246545382075 8.234383581305265 20.66336284837601 8.56780992034067 20.31436 8.664970000000004 C 20.15903 8.718360000000004 19.984280000000002 8.781470000000004 19.78526 8.863990000000005 C 19.58624 8.946510000000005 19.41635 9.029030000000004 19.261020000000002 9.111550000000005 L 19.231900000000003 9.111550000000005 C 19.066860000000002 9.198920000000005 18.892110000000002 9.291150000000005 18.74649 9.388230000000005 L 18.697950000000002 9.388230000000005 C 18.53291 9.485310000000005 18.37273 9.587250000000006 18.21254 9.689180000000006 C 17.940724260623405 9.868918254560901 17.584097860714934 9.85324338913886 17.3291 9.650350000000005 L 15.64959 8.349450000000004 C 15.598442971055624 8.308319962334624 15.541102062529626 8.275553728891197 15.4797 8.252370000000004 C 15.4317474385484 8.241690249602282 15.382032561451599 8.241690249602282 15.33408 8.252370000000004 C 15.264716551912432 8.262294492186195 15.197470347152782 8.283615140966889 15.13506 8.315470000000005 L 15.105939999999999 8.315470000000005 C 15.060917819122198 8.34738476904203 15.020140245562732 8.384899464651248 14.984589999999999 8.427110000000004 L 13.358469999999999 10.402720000000004 C 13.309471240588035 10.461724268619612 13.271639457649641 10.529166775251639 13.24683 10.601740000000005 C 13.237226100256871 10.653071316974358 13.237226100256871 10.70573868302565 13.24683 10.757070000000004 L 13.24683 10.791050000000004 C 13.251911486156033 10.848736743938787 13.268411328172725 10.904837566485856 13.295369999999998 10.956090000000003 L 13.295369999999998 10.980360000000003 C 13.327520544141805 11.028140171649667 13.366810887589164 11.070705272477918 13.411869999999999 11.106570000000003 L 14.868099999999998 12.334650000000003 C 15.143806921121413 12.559888611778259 15.219354580256654 12.949880266644945 15.047699999999999 13.261780000000003 C 14.960556474135592 13.419612044248025 14.88117846064737 13.581608603118394 14.809849999999997 13.747190000000007 C 14.729131052082241 13.932779643576653 14.65784673020138 14.122331590977149 14.59627 14.315120000000006 C 14.53802 14.494720000000004 14.47492 14.688880000000005 14.41181 14.907320000000004 C 14.3487 15.125760000000003 14.30017 15.315060000000004 14.25648 15.499520000000004 C 14.194677260361514 15.82647554671821 13.922948494993216 16.072421113195155 13.59147 16.101430000000004 L 11.58673 16.285890000000006 C 11.517500120936111 16.293549117509528 11.45014439371623 16.313263071436563 11.387709999999998 16.344140000000007 C 11.332876000847456 16.37437664186538 11.283624324600046 16.4137793357455 11.24209 16.460640000000005 C 11.204337056425153 16.5062866908666 11.17626146128601 16.559134269550107 11.159569999999999 16.615970000000004 C 11.146494179548883 16.680029550832554 11.146494179548883 16.746070449167455 11.159569999999999 16.810130000000004 L 11.411979999999998 19.387650000000004 C 11.41897406260328 19.45855753512611 11.43870694251482 19.527620921007074 11.470229999999997 19.591520000000003 C 11.502626776741627 19.654624173736636 11.547165287178043 19.710710208853577 11.601289999999997 19.756560000000004 C 11.650347764426842 19.793010498948927 11.704263596289318 19.822418828514568 11.761469999999997 19.843930000000004 C 11.82089921913902 19.854164945104237 11.881640780860977 19.854164945104237 11.941069999999998 19.843930000000004 L 13.829309999999998 19.664330000000003 C 14.17995297645529 19.642487107081788 14.497933836418365 19.86932839134943 14.591399999999998 20.207990000000002 C 14.644789999999999 20.36332 14.712749999999998 20.542920000000002 14.795269999999999 20.737090000000002 C 14.87779 20.93126 14.955449999999999 21.10115 15.042829999999999 21.26619 L 15.076809999999998 21.33415 C 15.154479999999998 21.484630000000003 15.241849999999998 21.64967 15.338929999999998 21.819560000000003 L 15.664149999999998 22.353510000000004 C 15.836424106311787 22.625184300957866 15.816916475089469 22.976329700714512 15.615609999999998 23.227250000000005 L 14.271029999999998 24.882490000000004 C 14.23565607208615 24.930493694839832 14.206312992743097 24.98266103505222 14.183659999999998 25.037820000000004 C 14.176050382328652 25.084434817947756 14.176050382328652 25.13197518205225 14.183659999999998 25.178590000000003 C 14.189991220333255 25.249622235534193 14.209758275612764 25.318805232269533 14.241909999999997 25.382460000000002 C 14.273286944360638 25.440695830600717 14.316235921190145 25.491903833400052 14.368119999999998 25.532940000000004 C 15.037979999999997 26.091160000000002 15.727259999999998 26.639670000000002 16.392269999999996 27.20275 C 16.436595085188177 27.2346659133408 16.48576221821445 27.259249479853935 16.537889999999997 27.275560000000002 C 16.598735436546523 27.288118200930676 16.661504563453473 27.288118200930676 16.72235 27.275560000000002 L 16.72235 27.275560000000002 C 16.796216781805875 27.26777766048857 16.86834013655971 27.24810734765773 16.93593 27.21731 L 16.9602 27.21731 C 17.00618985871201 27.18639942906836 17.049981505110342 27.152337774605932 17.091260000000002 27.115370000000002 L 18.30478 25.65914 C 18.52974903944033 25.383523208909423 18.918576909600603 25.306162764387334 19.23191 25.47468 C 19.399172083782158 25.564295251523554 19.570906209978997 25.64530097019491 19.74644 25.71738 C 19.93575 25.799899999999997 20.12506 25.86786 20.31437 25.93096 C 20.50368 25.994059999999998 20.68328 26.05231 20.90657 26.11542 C 21.129859999999997 26.178530000000002 21.309459999999998 26.22706 21.498769999999997 26.27075 C 21.82771830587553 26.345519666382696 22.06495573418951 26.632595682616323 22.076409999999996 26.969739999999998 L 22.260869999999997 28.945349999999998 C 22.268602002954548 29.01519590983666 22.290045192193933 29.082828612252225 22.323969999999996 29.14437 C 22.3508220125028 29.20004085614437 22.388820156445316 29.249604540495042 22.435609999999997 29.28999 C 22.482517111998813 29.32581916968397 22.534992832141352 29.35369721272886 22.590939999999996 29.37251 C 22.656682747136852 29.385099162790418 22.72421725286314 29.385099162790418 22.789959999999997 29.37251 L 25.362629999999996 29.120099999999997 C 25.435081709855563 29.113060490207225 25.50573277011021 29.093343993968865 25.571359999999995 29.061849999999996 L 25.571359999999995 29.061849999999996 C 25.62910017671317 29.031678646075495 25.68155921865735 28.992333520301358 25.726689999999994 28.945349999999998 C 25.77045095421151 28.891589165325918 25.804906794355084 28.830884153654477 25.828629999999993 28.765749999999997 C 25.843427877454083 28.708439816210927 25.843427877454083 28.648310183789068 25.828629999999993 28.590999999999998 L 25.653879999999994 26.697909999999997 C 25.617801365046567 26.358197377427384 25.8181197918198 26.03769037066314 26.139289999999995 25.921259999999997 C 26.328599999999994 25.858159999999998 26.517909999999997 25.785349999999998 26.702359999999995 25.707679999999996 L 26.760609999999996 25.707679999999996 C 26.915939999999996 25.639719999999997 27.071269999999995 25.562059999999995 27.246019999999998 25.474679999999996 L 27.275139999999997 25.474679999999996 C 27.4596 25.382449999999995 27.639199999999995 25.285369999999997 27.799379999999996 25.188289999999995 L 28.338179999999994 24.863069999999993 C 28.60857074235981 24.689911447778954 28.959903492682507 24.711499763242227 29.207059999999995 24.916459999999994 L 30.847739999999995 26.256189999999993 C 30.89679776442684 26.292640498948916 30.950713596289315 26.322048828514557 31.007919999999995 26.343559999999993 L 31.007919999999995 26.343559999999993 C 31.058981288811196 26.355732079651894 31.112188711188793 26.355732079651894 31.163249999999994 26.343559999999993 C 31.232646400917183 26.340211366296185 31.300515355168848 26.32200453548774 31.362269999999995 26.290169999999993 C 31.417749735166232 26.254871062888853 31.466963026118062 26.210578425118307 31.507889999999996 26.15910999999999 C 32.066109999999995 25.48924999999999 32.614619999999995 24.79996999999999 33.177699999999994 24.134959999999992 C 33.210443015371894 24.092928014077646 33.23512832156645 24.04520173261895 33.25050999999999 23.994189999999993 C 33.2607392180591 23.933128778831403 33.2607392180591 23.87079122116858 33.25050999999999 23.80972999999999 L 33.25050999999999 23.80972999999999 C 33.24209322050219 23.7359837736029 33.22244954988346 23.663958105435544 33.19225999999999 23.59614999999999 C 33.160849019775085 23.537907020895766 33.11982138098177 23.485390967053444 33.07090999999999 23.44081999999999 L 31.61467999999999 22.25641999999999 C 31.333075874913817 22.033290403958212 31.25313848281457 21.639755721750944 31.42536999999999 21.324439999999992 C 31.514985251523544 21.157177916217833 31.5959909701949 20.985443790020994 31.66806999999999 20.80990999999999 C 31.75058999999999 20.61088999999999 31.82339999999999 20.42157999999999 31.88164999999999 20.24683999999999 C 31.93989999999999 20.072099999999992 31.99814999999999 19.86821999999999 32.06124999999999 19.649789999999992 C 32.124349999999986 19.431359999999994 32.17288999999999 19.25174999999999 32.216579999999986 19.057589999999994 C 32.29269214938268 18.723488900979252 32.58750369101209 18.48483016801476 32.930129999999984 18.479949999999995 L 34.949429999999985 18.266369999999995 C 35.02020379193063 18.2586834223468 35.089148611009 18.2389844194954 35.15329999999999 18.208119999999994 C 35.20454098018891 18.176701412618264 35.25180560380278 18.13921741332685 35.29406999999999 18.096479999999993 C 35.32989916968396 18.049572888001176 35.357777212728855 17.997097167858637 35.37658999999999 17.941149999999993 L 35.37658999999999 17.941149999999993 C 35.38700289291672 17.880104194518253 35.38700289291672 17.817735805481732 35.37658999999999 17.756689999999992 L 35.124179999999996 15.184019999999991 C 35.11578403080813 15.11493960163086 35.09610576203129 15.04770579816363 35.065929999999994 14.98499999999999 L 35.065929999999994 14.95587999999999 C 35.03249265302165 14.904771954110906 34.9915888923722 14.858960416328735 34.944579999999995 14.819969999999989 C 34.89670420656761 14.78170751184005 34.84248992173012 14.752136391436428 34.7844 14.732599999999989 L 34.7844 14.732599999999989 C 34.731473495065806 14.722614906244859 34.67714650493419 14.722614906244859 34.62422 14.732599999999989 L 32.71656 14.86850999999999 C 32.37767002167387 14.901057885228923 32.05915360960212 14.701983589749947 31.93991 14.38309999999999 C 31.876810000000003 14.20349999999999 31.80885 14.01418999999999 31.72148 13.82002999999999 C 31.63411 13.62586999999999 31.55159 13.42198999999999 31.46907 13.26180999999999 L 31.46907 13.22782999999999 C 31.386758871626885 13.061517102507864 31.296031371471205 12.899503947776713 31.197239999999997 12.74241999999999 C 31.10016 12.577379999999991 30.988509999999998 12.41233999999999 30.876869999999997 12.25700999999999 C 30.689681461703888 11.981385683077031 30.707499499518555 11.615151392897392 30.92056 11.358999999999991 L 32.25058 9.71345999999999 C 32.292690180539566 9.66298744632966 32.32555496849642 9.605474067405169 32.34766 9.54356999999999 C 32.357937060312764 9.497209382277257 32.357937060312764 9.449160617722724 32.34766 9.40279999999999 C 32.33765658817069 9.331907943192688 32.316352952299226 9.263077955155987 32.28456 9.19892999999999 L 32.28456 9.16494999999999 C 32.25605656231864 9.121645940968168 32.22175802153351 9.082448569951223 32.18262 9.04844999999999 L 30.36234 7.55338999999999 C 30.264682196788296 7.527627536755633 30.173658898888803 7.4812890851786005 30.09537 7.41747999999999 z M 50.181560000000005 19.358530000000002 C 50.02694676573711 19.226875912095906 49.825425244646205 19.163789878255063 49.623340000000006 19.183780000000002 C 49.42266389914598 19.20651185891413 49.23842685167033 19.305582284925368 49.108810000000005 19.46046 L 48.366130000000005 20.35847 C 48.130122315083426 20.236300046066322 47.88507803032018 20.132441146650862 47.633160000000004 20.047810000000002 C 47.37104 19.965290000000003 47.14775 19.892480000000003 46.86621 19.82938 L 46.74971 18.57703 C 46.73196803558364 18.377050046227374 46.636030047190204 18.19214922153518 46.48274 18.0625 C 46.32958177197793 17.932606809650956 46.12823144313188 17.874323390465673 45.92937 17.90232 L 44.34694 18.05765 C 44.15865296341136 18.083111875617487 43.98609038246944 18.176295171628066 43.861529999999995 18.31977 C 43.728340698743516 18.47353155574545 43.66504306782125 18.675729000858027 43.68677999999999 18.877989999999997 L 43.79356999999999 20.028409999999997 C 43.537150943463956 20.11137206298477 43.28861308679264 20.216960828720936 43.05088999999999 20.34393 C 42.81520055678467 20.460301544837574 42.588102224112966 20.593318335361943 42.37131999999999 20.741970000000002 L 41.37137999999999 19.93619 C 41.224772439034254 19.800328766162526 41.0264086670462 19.734798593905868 40.827719999999985 19.75659 C 40.626004205878345 19.779578630505988 40.441309348442765 19.88063977400085 40.313189999999985 20.03813 L 39.34236999999998 21.2468 C 39.21112619054505 21.401522373817645 39.14793284223322 21.602692252153158 39.16712627122379 21.80467136682493 C 39.18631970021437 22.006650481496703 39.2862728799444 22.19231706729566 39.44430999999998 22.31955 L 40.28891999999998 23.06223 C 40.166310680555235 23.297405606910704 40.064002536685585 23.54261930238221 39.98310999999998 23.7952 C 39.89573999999998 24.05732 39.822929999999985 24.280610000000003 39.75981999999998 24.562150000000003 L 38.507469999999984 24.67865 C 38.307933136396 24.697901665522693 38.12356844698057 24.79356147376174 37.99293999999998 24.94562 C 37.87256835230884 25.10492318148296 37.82498057427554 25.307612403623548 37.861879999999985 25.50384 L 38.017209999999984 27.08142 C 38.036686296629036 27.27952086872016 38.132420180024674 27.462289141144367 38.284179999999985 27.5911 C 38.43555151450558 27.72511290323588 38.63666654642594 27.788623487163598 38.837549999999986 27.76585 L 39.98796999999998 27.65906 C 40.06745387926984 27.912991635446986 40.168124357667324 28.15979905319489 40.28891999999998 28.39688 C 40.4092106354093 28.6367169285797 40.54207542280362 28.87003809665516 40.686959999999985 29.095869999999998 L 39.881179999999986 30.066689999999998 C 39.74650070264665 30.21379294340675 39.6826861402289 30.41232470308647 39.70642999999998 30.610349999999997 C 39.73434235326149 30.80118644394235 39.83313032769273 30.97450099746507 39.98310999999998 31.09576 L 41.21118999999998 32.1491 C 41.36699556581546 32.27760097129574 41.569174381535866 32.33561573734155 41.76940999999998 32.309279999999994 C 41.97060214510198 32.28989389877721 42.15742583196055 32.19648205534792 42.29364999999998 32.04715999999999 L 43.041179999999976 31.134589999999992 C 43.27582324300075 31.259641191883617 43.52111042584035 31.36360304055539 43.77414999999998 31.44524999999999 C 44.025585516683506 31.53211840866745 44.28162511543203 31.605039367732108 44.54109999999998 31.663679999999992 L 44.65759999999998 32.92088999999999 C 44.6785365243794 33.11855172256125 44.77400264803173 33.3008088072641 44.92456999999998 33.430569999999996 C 45.07931493019959 33.56133951728603 45.28181402799039 33.621209194294 45.48278999999998 33.59560999999999 L 47.06036999999998 33.440279999999994 C 47.25788836011771 33.41887104672662 47.439982076551594 33.32349049525049 47.57004999999998 33.173309999999994 C 47.70323930125646 33.01954844425454 47.766536932178724 32.817350999141965 47.744799999999984 32.615089999999995 L 47.63315999999998 31.464669999999995 C 47.89023391653652 31.383471321497414 48.13893153051183 31.27781468450505 48.37583999999998 31.149149999999995 C 48.61445413860345 31.031299915125423 48.84620192305357 30.90002970077062 49.069969999999984 30.755969999999994 L 50.04078999999999 31.561749999999993 C 50.19455155574544 31.694939301256476 50.396749000858016 31.758236932178733 50.599009999999986 31.736499999999992 C 50.800949745965106 31.717884297837575 50.9866602368108 31.618021552016756 51.113539999999986 31.459819999999993 L 52.12318999999999 30.236589999999993 C 52.2518707623378 30.080726444580954 52.31146796608007 29.879148941714924 52.288229999999984 29.678369999999994 C 52.269442831274255 29.47594521807732 52.17392387914644 29.288377867950018 52.021259999999984 29.154129999999995 L 51.10868999999998 28.416309999999996 C 51.24627025137499 28.183318553734658 51.36165723218968 27.937916988832885 51.45332999999998 27.683339999999994 C 51.53954246468698 27.433344169252983 51.6124545734029 27.17895791767897 51.67175999999998 26.921249999999993 L 52.92896999999998 26.804749999999995 C 53.11853418097673 26.779802419297482 53.29179521677652 26.68451081276389 53.41437999999998 26.537779999999994 C 53.545691788991235 26.383328004577482 53.60563357609935 26.18058500651949 53.57941999999998 25.979559999999996 L 53.42408999999998 24.401979999999995 C 53.39692740880766 24.213149470047842 53.30204503968785 24.040632517602052 53.15711999999998 23.916569999999993 C 53.00414385488254 23.7816363150827 52.80185804148884 23.716553494536125 52.59889999999998 23.736969999999992 L 51.44847999999998 23.848609999999994 C 51.36196715438969 23.593530880147764 51.25649972518302 23.345278628869842 51.13295999999998 23.10592999999999 C 51.02168794002802 22.867528683876397 50.888431278035554 22.640020820872117 50.73491999999998 22.426359999999992 L 51.545549999999984 21.426419999999997 C 51.677464764975916 21.277725895900275 51.74086997620167 21.080467657645666 51.72029999999999 20.882759999999998 C 51.69756814108586 20.682083899145976 51.59849771507462 20.49784685167032 51.44361999999999 20.368229999999997 L 50.230099999999986 19.373139999999996 L 50.19126999999999 19.373139999999996 L 50.18155999999999 19.358579999999996 z M 45.385720000000006 22.67387 C 45.797468664952866 22.636551416391864 46.21255902594789 22.677730275074815 46.60895000000001 22.79522 C 46.98892431393086 22.916120025851214 47.3429005679533 23.1071009380063 47.65258000000001 23.35829 C 47.960331291950105 23.612574213120002 48.2158425297805 23.924133690791333 48.40496000000001 24.27571 C 48.60280109402135 24.63658433154792 48.72191467254677 25.03529052829797 48.75445000000001 25.44555 C 48.79200577089851 25.857299638381303 48.75082248038955 26.272434672985984 48.63310000000001 26.668779999999998 C 48.4068592851168 27.439032106798074 47.88271752778966 28.08722035076896 47.176870000000015 28.46965 C 46.814687508947685 28.6635474445927 46.416486658281684 28.78085916343761 46.007030000000015 28.81429 C 45.595274264370545 28.854299992901414 45.179669110906204 28.8130700644555 44.783800000000014 28.69294 C 44.40260990826466 28.57374436550063 44.047024416348435 28.384427513202567 43.735320000000016 28.13472 C 43.43028177772732 27.87711658225204 43.17665749013074 27.56420257483484 42.98779000000002 27.21244 C 42.77902828062487 26.851065695329677 42.65148533198076 26.44855603767856 42.61403000000002 26.0329 C 42.48050935736767 24.793647079098555 43.114886275879584 23.597944505544294 44.21588000000002 23.01366 C 44.57629098543046 22.814712578396943 44.97524107524363 22.695526136756374 45.38572000000002 22.664170000000002 L 45.38572000000002 22.67388 z M 30.36717000000001 5.888439999999999 C 30.537038460837607 5.941807133880161 30.699979402071236 6.015129046889085 30.85258000000001 6.106869999999999 C 30.959529381967535 6.13247795268841 31.059172080591768 6.182297591396258 31.143830000000012 6.252489999999999 L 33.10003000000001 7.878609999999999 C 33.28150413678265 8.027337342990215 33.43587465920565 8.206344626706375 33.55631000000001 8.40771 L 33.59514000000001 8.47081 C 33.71886227626196 8.699761886505128 33.797932555787796 8.950146580237995 33.828140000000005 9.20863 C 33.862007167506725 9.480006723068099 33.83379068347087 9.755531183882521 33.74562 10.01441 C 33.668604565385486 10.241844513056526 33.551923152896485 10.45384418480782 33.400980000000004 10.64059 L 32.40104 11.883239999999999 L 32.46414 11.98518 C 32.59145018571981 12.198517356441203 32.706516218426465 12.418927036546904 32.80878 12.64534 Q 32.98353 12.98513 33.10003 13.271519999999999 L 33.138859999999994 13.368599999999999 L 34.449459999999995 13.242389999999999 C 34.703863521568884 13.212917552549378 34.961609786607134 13.236049500375692 35.2067 13.310349999999996 L 35.245529999999995 13.310349999999998 C 35.47057452878184 13.384927500914664 35.68084706990092 13.49827743685269 35.86684999999999 13.645279999999998 L 35.93480999999999 13.703529999999997 C 36.10810999751466 13.855670084998831 36.25420600157 14.036239889784248 36.36681999999999 14.237479999999998 L 36.40564999999999 14.300579999999998 C 36.51724332211045 14.520630074648293 36.587966400706414 14.759109122408464 36.61437999999999 15.004419999999996 C 36.61437999999999 15.654869999999997 36.77941999999999 16.916929999999997 36.86678999999999 17.5965 C 36.89581571116759 17.841994334769158 36.87769450299802 18.090773168858963 36.81339999999999 18.32947 L 36.81339999999999 18.373160000000002 C 36.73928875891361 18.623456371311846 36.61546780609065 18.85623881030711 36.449339999999985 19.05759 L 36.449339999999985 19.05759 C 36.28985295883296 19.255085884969183 36.0937122631912 19.419909399738707 35.87169999999998 19.543000000000003 C 35.64125774297232 19.661364242662025 35.39128377944804 19.73701506036192 35.133879999999984 19.76629 L 33.590279999999986 19.9022 L 33.55144999999999 20.04297 C 33.49805999999999 20.23713 33.43009999999999 20.45557 33.342719999999986 20.70313 C 33.25533999999998 20.95069 33.18253999999999 21.188540000000003 33.10001999999999 21.36814 L 33.06118999999999 21.45066 L 34.124239999999986 22.309829999999998 C 34.32599357100025 22.48427664252575 34.491003286815065 22.6971395498596 34.60964999999999 22.93601 C 34.69827578323523 23.149118474230637 34.75077134299221 23.37550536445668 34.76497999999999 23.60587 L 34.76497999999999 23.63014 C 34.7976060016362 23.890607404403156 34.77612461819085 24.15500544644483 34.70187999999999 24.40679 C 34.634480154791476 24.643281709922604 34.52424731801472 24.86539467326989 34.37665999999999 25.06209 L 32.68257999999999 27.11051 C 32.52078196942264 27.309517801761036 32.32115871048305 27.474497415139773 32.09523999999999 27.595920000000003 C 31.866379833593875 27.723932128606666 31.613530409938207 27.803258239060387 31.35255999999999 27.828920000000004 C 31.093649773166515 27.859006394628715 30.831345117508725 27.837561170772783 30.58075999999999 27.765820000000005 L 30.54192999999999 27.765820000000005 C 30.32100568403451 27.69083194732464 30.114253434354776 27.57925158276121 29.93030999999999 27.435740000000006 L 28.67309999999999 26.411530000000006 L 28.54688999999999 26.484340000000007 C 28.33330999999999 26.610550000000007 28.12457999999999 26.72219000000001 27.92556999999999 26.819270000000007 C 27.72655999999999 26.916350000000005 27.55665999999999 27.003730000000008 27.35763999999999 27.091100000000008 L 27.18288999999999 27.14935000000001 L 27.31879999999999 28.45995000000001 C 27.34889011508204 28.729752574749597 27.3207503348328 29.00287076182208 27.23627999999999 29.26087000000001 C 27.15439599281274 29.500015340901488 27.029358766613164 29.722120717086963 26.86736999999999 29.91617000000001 L 26.83824999999999 29.94529000000001 C 26.681178028605682 30.12193302656994 26.49581039798854 30.271211234435256 26.28973999999999 30.38701000000001 L 26.241199999999992 30.38701000000001 C 26.02233779137338 30.497268301817993 25.785693862880738 30.567934101320517 25.542209999999994 30.59574000000001 C 24.891759999999994 30.59574000000001 23.629699999999993 30.76563000000001 22.950129999999994 30.85301000000001 C 22.689592192293865 30.88174221132334 22.42596259708504 30.860323261400364 22.173479999999994 30.78991000000001 C 21.922796862554367 30.714344753269078 21.68998641546312 30.588859163747237 21.489049999999995 30.42100000000001 L 21.464779999999994 30.42100000000001 C 21.27807135982608 30.255406027474045 21.121975379528283 30.058233048414184 21.003639999999994 29.83851000000001 C 20.88240841321318 29.609236871821707 20.80659048980425 29.35871073876794 20.780349999999995 29.10069000000001 L 20.639579999999995 27.56194000000001 L 20.503669999999996 27.52311000000001 L 19.843509999999995 27.31438000000001 C 19.610509999999994 27.23671000000001 19.358099999999993 27.15420000000001 19.178499999999996 27.06682000000001 L 19.086269999999995 27.02799000000001 L 18.212529999999994 28.09104000000001 C 18.05239188756234 28.272375680404537 17.85977554203805 28.422187263073155 17.644599999999993 28.53276000000001 L 17.591209999999993 28.56674000000001 C 17.377949426986433 28.66663580369215 17.150228281233193 28.732165708926097 16.916489999999992 28.76090000000001 L 16.89221999999999 28.76090000000001 C 16.630136180472245 28.793229938067892 16.364211937544216 28.771758914371766 16.11070999999999 28.69780000000001 C 15.8775191539974 28.62723237275992 15.658865081150195 28.51543798876171 15.46511999999999 28.367720000000013 L 13.41183999999999 26.673640000000013 C 13.213890638919562 26.510778094430965 13.049096762738346 26.31137957516627 12.926429999999991 26.086300000000012 C 12.802632976023151 25.859113055899197 12.723538780205692 25.61029900994073 12.69342999999999 25.35333000000001 C 12.661990276637585 25.09153643217521 12.690201486835466 24.82602217623503 12.775949999999991 24.57668000000001 C 12.84776146052668 24.352907125741364 12.9596015617746 24.144030286137923 13.106029999999992 23.96021000000001 L 14.130239999999992 22.70300000000001 L 14.076849999999991 22.58165000000001 C 13.970059999999991 22.40205000000001 13.868119999999992 22.20789000000001 13.766189999999991 22.00401000000001 L 13.766189999999991 22.00401000000001 C 13.644839999999991 21.780720000000013 13.54289999999999 21.567140000000013 13.450669999999992 21.34871000000001 L 13.406979999999992 21.23707000000001 L 12.106079999999992 21.35842000000001 C 11.838224471618503 21.389977686140156 11.566714133451786 21.363487292122787 11.310009999999991 21.28075000000001 C 11.083824770059733 21.206532315102745 10.87321581652694 21.091353636932222 10.68868999999999 20.940960000000008 L 10.61587999999999 20.887570000000007 C 10.41801627526212 20.717007758715745 10.253439612529453 20.51128777791668 10.13046999999999 20.280810000000006 C 10.019533664591162 20.062217953077134 9.94883074836223 19.825449728984474 9.921739999999991 19.581820000000008 C 9.921739999999991 18.926520000000007 9.75184999999999 17.683870000000006 9.66446999999999 16.99459000000001 C 9.624525129658597 16.72741835166829 9.639390326303744 16.45491129520157 9.70815999999999 16.193670000000008 C 9.783725246730922 15.942986862554381 9.909210836252761 15.710176415463135 10.07706999999999 15.509240000000007 L 10.07706999999999 15.509240000000007 C 10.240875819867732 15.314138615786522 10.438118670057278 15.149769009594987 10.659559999999988 15.023830000000007 C 10.889180318092617 14.904288291823876 11.139689572427889 14.8301255740547 11.39737999999999 14.805400000000008 L 12.93612999999999 14.664630000000008 L 12.97495999999999 14.523860000000008 C 13.03320999999999 14.334550000000007 13.10116999999999 14.111260000000009 13.18368999999999 13.868560000000008 C 13.266209999999989 13.625860000000007 13.348729999999989 13.383150000000008 13.43124999999999 13.198700000000008 L 13.47007999999999 13.106470000000007 L 12.474989999999991 12.261860000000008 C 12.282429213507918 12.11255927498271 12.118050320148539 11.930100430414132 11.989579999999991 11.723060000000007 L 11.96045999999999 11.674520000000008 C 11.849329558948797 11.459798721323004 11.780138590164553 11.225865572926457 11.75658999999999 10.985240000000008 L 11.75658999999999 10.946410000000007 C 11.728974829503017 10.683335632639066 11.755405419457253 10.417392921745085 11.83425999999999 10.164900000000008 C 11.914881825465471 9.914359641134308 12.04347747935475 9.681897744268216 12.21287999999999 9.480470000000006 L 13.83899999999999 7.495150000000006 C 13.987570756516932 7.312983304404868 14.16860999968486 7.159923007479505 14.372949999999989 7.043720000000006 L 14.43119999999999 7.004890000000006 C 14.659017614926913 6.878510291657398 14.909938928099528 6.799270550298775 15.169019999999987 6.771890000000006 C 15.435594776301132 6.738024489686135 15.706390058206193 6.766266984394062 15.960239999999988 6.854410000000006 C 16.187309271253866 6.932252713789734 16.399170669129795 7.048858022429358 16.58641999999999 7.199050000000006 L 17.83391999999999 8.203850000000006 L 17.96012999999999 8.106770000000006 C 18.15914999999999 7.990270000000006 18.363019999999988 7.883480000000006 18.56688999999999 7.781550000000006 C 18.770759999999992 7.679620000000007 18.99404999999999 7.567970000000006 19.19306999999999 7.480600000000006 L 19.30956999999999 7.436910000000006 L 19.17850999999999 6.131160000000007 C 19.14903755254937 5.876756478431119 19.172169500375684 5.61901021339287 19.246469999999988 5.373920000000006 L 19.246469999999988 5.335090000000006 C 19.321047500914652 5.110045471218163 19.43439743685268 4.899772930099079 19.581399999999988 4.7137700000000065 L 19.65420999999999 4.6749400000000065 C 19.82126501866697 4.477371190234112 20.02375408726579 4.312744745566912 20.251259999999988 4.189530000000007 C 20.470359936053125 4.073852406981488 20.70900469875115 3.9997912915061944 20.955099999999987 3.9711000000000065 C 21.605549999999987 3.9711000000000065 22.86760999999999 3.8060600000000067 23.547179999999987 3.7186900000000067 C 23.807667482075875 3.687026402668137 24.071870273884702 3.708491922739131 24.323829999999987 3.781790000000007 C 24.57412637131183 3.855901241086386 24.806908810307092 3.9797221939093417 25.008259999999986 4.145850000000006 L 25.008259999999986 4.1458500000000065 C 25.203506604708164 4.307616318792256 25.367946800906186 4.503300863675602 25.493669999999987 4.723490000000005 C 25.617671874667447 4.9592502537646554 25.696685442738527 5.216040958855402 25.726669999999988 5.480730000000007 L 25.862579999999987 7.024330000000006 L 26.003349999999987 7.063160000000006 C 26.192659999999986 7.116550000000006 26.415949999999988 7.184510000000006 26.663509999999988 7.267030000000006 L 27.328519999999987 7.514590000000006 L 27.425599999999985 7.558280000000006 L 28.265359999999983 6.543780000000006 C 28.42930323011708 6.344993135030315 28.630462377512785 6.180108532299228 28.85755999999998 6.058370000000006 C 29.08986152679234 5.928570045660539 29.345578231030053 5.846081882606639 29.60993999999998 5.815670000000006 C 29.872643303797066 5.7831310495831865 30.13927877208966 5.807972354808179 30.39144999999998 5.888480000000006 L 30.36717999999998 5.888480000000006 z M 22.673440000000006 11.52404 C 23.046538776813094 11.492519412429639 23.42163122318692 11.49251941242964 23.79473000000001 11.52404 C 24.183177710533247 11.562087450647454 24.56690323801685 11.638506967599955 24.940290000000005 11.75218 L 24.940290000000005 11.75218 C 25.296010702838153 11.863843047138655 25.64052911583057 12.008474024231422 25.969360000000005 12.184189999999997 L 26.013050000000007 12.208459999999999 C 26.320649461921523 12.378742095987938 26.61298058451181 12.575251082119031 26.886790000000005 12.795799999999996 L 26.88679000000001 12.795799999999998 C 27.456645352957228 13.278794752791235 27.93225445324064 13.863020640181986 28.289620000000006 14.518999999999995 C 28.477950339341337 14.855444509306418 28.62775607331876 15.212045757693497 28.73620000000001 15.582049999999999 C 28.84923955576458 15.954902878688076 28.920864805531235 16.339072843678665 28.94978000000001 16.72761 L 28.94978000000001 16.72761 C 28.98368170531911 17.098984574823255 28.98368170531911 17.47267542517674 28.94978000000001 17.844049999999996 C 28.916672300202652 18.23280946555038 28.841811030110154 18.61687537341531 28.726490000000013 18.98961 L 28.726490000000013 19.038149999999998 C 28.616428381733336 19.373504671753466 28.47672683359112 19.69839401650716 28.309040000000014 20.008969999999998 C 28.133593598423975 20.333218596197046 27.930592647397773 20.64178164767118 27.702280000000012 20.93125 L 27.653740000000013 20.98464 C 27.180974536998466 21.539054051807184 26.60995624927659 22.001463703162074 25.969370000000012 22.34864 C 25.629855717454813 22.53413551347536 25.27196212239569 22.68380132645551 24.90147000000001 22.79522 C 24.52904262567596 22.903167188195834 24.147013378337512 22.97469615405617 23.760760000000012 23.0088 C 23.381176439507968 23.04031729143293 22.999633560492057 23.04031729143293 22.620050000000013 23.0088 C 22.23151719504482 22.971328298477594 21.847734789646974 22.894897454202773 21.474490000000014 22.78066 L 21.474490000000014 22.78066 C 21.120662516480387 22.6680946501341 20.777839152781198 22.523492350457584 20.45028000000001 22.34865 C 20.126276915811605 22.170949149001245 19.81776654584666 21.96635714605425 19.528000000000013 21.73703 L 19.528000000000013 21.73703 C 19.24526502759905 21.49959004571924 18.98525885343665 21.236333166669034 18.751350000000013 20.950670000000002 C 18.514096132686173 20.65910654825775 18.302939597469365 20.34724551519852 18.120320000000014 20.018690000000003 C 17.936050114885855 19.679192884558923 17.78799582330332 19.32125759075065 17.678600000000014 18.95079 C 17.565560444235444 18.577937121311923 17.49393519446879 18.193767156321336 17.465020000000013 17.80523 L 17.465020000000013 17.80523 C 17.431118294680914 17.433855425176745 17.431118294680914 17.060164574823258 17.465020000000013 16.688790000000004 C 17.498127699797372 16.300030534449622 17.57298896988987 15.915964626584687 17.688310000000012 15.543230000000001 L 17.688310000000012 15.543230000000001 C 17.799043370842973 15.187169779082316 17.94371058519802 14.842565047070677 18.120320000000014 14.51416 L 18.144590000000015 14.47047 C 18.3125150685647 14.159914588799028 18.509153535752063 13.865767091802153 18.731930000000016 13.591880000000002 L 18.770760000000017 13.54334 C 18.998544369001483 13.27185796077355 19.252147246079403 13.023131289245065 19.528000000000016 12.80066 C 19.81966356784842 12.56496268503 20.13152977037683 12.355425593355033 20.459980000000016 12.174480000000003 C 20.79765629351136 11.988685496282203 21.15397449869386 11.838998666810024 21.523030000000013 11.727900000000002 C 21.89720858497561 11.62038026631822 22.280805311949795 11.548861891944858 22.668590000000016 11.514320000000001 L 22.673440000000017 11.524030000000002 z M 23.644260000000006 13.01424 C 23.35686893477767 12.98753723570005 23.067621065222344 12.98753723570005 22.780230000000007 13.014239999999997 L 22.780230000000007 13.01424 C 22.49583267499987 13.03789927525716 22.21451347628554 13.089934751031546 21.940470000000005 13.169569999999998 C 21.67267496429964 13.248983575659251 21.413983007284394 13.356365205963701 21.16867000000001 13.48994 C 20.917450384878936 13.631159685809793 20.678735016304778 13.793551707475524 20.455120000000008 13.975349999999999 C 20.255812476535095 14.13727044617578 20.07068434033169 14.315901684453616 19.901750000000007 14.509300000000001 L 19.901750000000007 14.5093 C 19.737354122131684 14.714618295727417 19.591177021857803 14.933882273133683 19.464880000000008 15.1646 L 19.464880000000008 15.20343 C 19.334854494351273 15.450424891430561 19.227620583709303 15.70876097855942 19.144510000000007 15.975230000000005 C 19.04359267091392 16.25506818702411 18.97201527496771 16.544631898136586 18.930930000000007 16.839260000000003 C 18.90663618812855 17.126757700691606 18.906636188128548 17.4157922993084 18.930930000000007 17.703290000000003 L 18.930930000000007 17.703290000000003 C 18.954267764983385 17.989704002638877 19.007962311250864 18.272828929115192 19.091110000000008 18.547900000000002 C 19.16981629199686 18.821340576776493 19.27890301980307 19.085104918691783 19.41633000000001 19.33426 C 19.555826272901665 19.58502251426063 19.718328553373947 19.822276312432702 19.90174000000001 20.04296 C 20.072636481424283 20.25585201146486 20.264530619037465 20.450999216706496 20.474520000000012 20.62545 C 20.688882149000502 20.795846543331102 20.917921094262788 20.946913929418432 21.15895000000001 21.07688 C 21.408038237790635 21.207336252544003 21.667877701539265 21.316143296129052 21.935600000000015 21.4021 C 22.208584416952906 21.487884954475266 22.490214301255794 21.543234335376177 22.77536000000001 21.567140000000002 C 23.06761388661116 21.593859625637208 23.36169611338886 21.593859625637208 23.65395000000001 21.567140000000002 C 23.939879895455398 21.54304149069592 24.22276493402572 21.4910168485047 24.49856000000001 21.411810000000003 C 24.75659686624484 21.3311631308641 25.005506691692133 21.223790856427534 25.24124000000001 21.091440000000002 C 25.49353463986016 20.95196211267912 25.732400239026887 20.789467892944668 25.95479000000001 20.60603 C 26.15450444448655 20.441023790825167 26.339644506637157 20.2591323869023 26.50816000000001 20.06237 L 26.50816000000001 20.06237 C 26.691184597770558 19.844850153525204 26.853681153844697 19.61085524668303 26.993570000000012 19.363380000000003 C 27.117336708247926 19.125813781963892 27.22281556239415 18.879159344317564 27.309090000000012 18.625560000000004 L 27.309090000000012 18.596440000000005 C 27.39340974963057 18.321188496539932 27.45031638823061 18.038276518036312 27.47898000000001 17.751830000000005 C 27.50327381187147 17.464332299308403 27.50327381187147 17.17529770069161 27.47898000000001 16.887800000000006 L 27.47898000000001 16.887800000000006 C 27.455642235016633 16.60138599736113 27.401947688749154 16.318261070884816 27.31880000000001 16.043190000000003 C 27.23973002991167 15.775273208700161 27.13233361784263 15.516545641091197 26.99843000000001 15.271390000000006 C 26.860087796288262 15.019915276295896 26.697512555641577 14.782554956058771 26.513020000000008 14.562690000000005 C 26.342123518575736 14.349797988535144 26.150229380962553 14.15465078329351 25.940240000000006 13.980200000000005 C 25.737388665191958 13.818552666452776 25.52144813148468 13.67405155899002 25.294650000000004 13.548190000000005 L 25.255820000000007 13.548190000000005 C 25.006845239737924 13.41749254693172 24.746984547424503 13.308676613944955 24.479170000000003 13.222970000000005 C 24.207699234742265 13.137761204773868 23.927743329810408 13.082420538167145 23.644270000000002 13.057930000000006 L 23.644270000000006 13.014240000000006 z M 7.887890000000006 45.37644 C 8.587263930828149 45.37447307134205 9.218867351932765 45.794252006215466 9.487870174280435 46.439825584902934 C 9.756872996628104 47.0853991635904 9.61022954183349 47.82946430380355 9.116392420171646 48.32469421121939 C 8.622555298509802 48.81992411863522 7.87890610955576 48.968662545016954 7.232577483157382 48.70147895527324 C 6.586248856759003 48.43429536552952 6.164692765902855 47.803876696725524 6.1646900000000056 47.1045 C 6.164686233095835 46.15201354614434 6.935407313041063 45.37911877513102 7.887890000000007 45.37644 z" stroke-linecap="round" />
</g>
<g transform="matrix(NaN NaN NaN NaN 0 0)"  >
<g style=""   >
</g>
</g>
<g transform="matrix(NaN NaN NaN NaN 0 0)"  >
<g style=""   >
</g>
</g>
<g transform="matrix(1 0 0 1 30 30)" id="svg_1"  >
<path style="stroke: rgb(21,38,62); stroke-width: 0; stroke-dasharray: none; stroke-linecap: butt; stroke-dashoffset: 0; stroke-linejoin: miter; stroke-miterlimit: 4; fill: rgb(21,38,62); fill-rule: nonzero; opacity: 1;" vector-effect="non-scaling-stroke"  transform=" translate(-29.83, -30.11)" d="M 1.50477 31.11513 L 10.339210000000001 31.11513 C 11.169166315483277 31.117792168889228 11.841317831110775 31.789943684516725 11.843980000000002 32.6199 L 11.843980000000002 50.67711 C 11.841317831110777 51.50706631548327 11.169166315483277 52.179217831110776 10.339210000000001 52.18188 L 1.5047700000000006 52.18188 C 0.6748136845167253 52.179217831110776 0.002662168889226768 51.50706631548327 8.881784197001252e-16 50.67711 L 6.661338147750939e-16 32.6199 C 0.0026621688892264216 31.789943684516725 0.6748136845167251 31.117792168889228 1.5047700000000004 31.11513 z M 13.79532 50.41498 L 13.79532 32.82862 L 23.18798 32.82862 C 26.54701 33.43053 29.90604 35.25566 33.26021 37.36719 L 39.41519 37.36719 C 42.196580000000004 37.53223 43.65766 40.35731 40.95394 42.22128 C 38.793870000000005 43.80371 35.949380000000005 43.71148 33.032070000000004 43.45422 C 31.017620000000004 43.35228 30.930250000000004 46.05601 33.032070000000004 46.06572 C 33.760180000000005 46.12397 34.5514 45.95408 35.24553 45.94922 C 38.8861 45.94922 41.88592 45.250229999999995 43.72077 42.37661 L 44.65761 40.18742 L 53.807559999999995 35.64885 C 58.38981999999999 34.14408 61.642059999999994 38.93507 58.26846999999999 42.264970000000005 C 51.884713131601984 46.925336575418825 45.05576516988515 50.94303372904115 37.88129999999999 54.259420000000006 C 32.83304999999999 57.332060000000006 27.779939999999996 57.22527000000001 22.731689999999997 54.259420000000006 L 13.800169999999996 50.41498000000001 L 13.795319999999997 50.41498000000001 z M 30.09535 7.417470000000002 C 30.039448831771477 7.371543357667499 29.975153037642613 7.33692123916612 29.90604 7.315530000000002 C 29.854918848844815 7.303878320613279 29.801831151155188 7.303878320613279 29.75071 7.315530000000002 C 29.61332063096675 7.329339386218699 29.486476654934183 7.395369130310605 29.39636 7.499990000000001 L 28.168280000000003 8.956220000000002 C 27.942603808516843 9.227663153125578 27.557041815359263 9.302745486008327 27.246000000000002 9.135820000000002 C 27.08096 9.048450000000003 26.90621 8.965930000000002 26.73147 8.893120000000003 C 26.55673 8.820310000000005 26.348000000000003 8.742640000000003 26.16354 8.679540000000003 C 25.97908 8.616440000000003 25.78978 8.563040000000003 25.571340000000003 8.499940000000002 C 25.352900000000005 8.436840000000002 25.168450000000004 8.388300000000003 24.979140000000005 8.344610000000003 C 24.656888516798077 8.262760605840784 24.427427326557737 7.977909561803462 24.416070000000005 7.645620000000003 L 24.231610000000003 5.645740000000003 C 24.223923422346807 5.574966208069355 24.204224419495407 5.5060213889909875 24.173360000000002 5.441870000000002 C 24.143522621230005 5.389541889796463 24.105876134772164 5.342072381567601 24.06172 5.301100000000003 C 24.017824869646088 5.260801164693236 23.964354876515344 5.232394908122393 23.906390000000002 5.218580000000003 C 23.84089457576164 5.203609474821892 23.77286542423836 5.203609474821892 23.70737 5.218580000000003 L 21.12985 5.470990000000003 C 21.06095212913444 5.4802593035796 20.99385295964336 5.49989816712525 20.93083 5.529240000000003 C 20.867708601515925 5.563686485284355 20.81170307876553 5.609806883957441 20.76579 5.665150000000003 C 20.72752751184006 5.713025793432385 20.69795639143644 5.7672400782698805 20.67842 5.825330000000003 L 20.67842 5.825330000000003 C 20.66843490624487 5.878256504934197 20.66843490624487 5.932583495065809 20.67842 5.985510000000003 L 20.85802 7.873750000000003 C 20.89246545382075 8.234383581305265 20.66336284837601 8.56780992034067 20.31436 8.664970000000004 C 20.15903 8.718360000000004 19.984280000000002 8.781470000000004 19.78526 8.863990000000005 C 19.58624 8.946510000000005 19.41635 9.029030000000004 19.261020000000002 9.111550000000005 L 19.231900000000003 9.111550000000005 C 19.066860000000002 9.198920000000005 18.892110000000002 9.291150000000005 18.74649 9.388230000000005 L 18.697950000000002 9.388230000000005 C 18.53291 9.485310000000005 18.37273 9.587250000000006 18.21254 9.689180000000006 C 17.940724260623405 9.868918254560901 17.584097860714934 9.85324338913886 17.3291 9.650350000000005 L 15.64959 8.349450000000004 C 15.598442971055624 8.308319962334624 15.541102062529626 8.275553728891197 15.4797 8.252370000000004 C 15.4317474385484 8.241690249602282 15.382032561451599 8.241690249602282 15.33408 8.252370000000004 C 15.264716551912432 8.262294492186195 15.197470347152782 8.283615140966889 15.13506 8.315470000000005 L 15.105939999999999 8.315470000000005 C 15.060917819122198 8.34738476904203 15.020140245562732 8.384899464651248 14.984589999999999 8.427110000000004 L 13.358469999999999 10.402720000000004 C 13.309471240588035 10.461724268619612 13.271639457649641 10.529166775251639 13.24683 10.601740000000005 C 13.237226100256871 10.653071316974358 13.237226100256871 10.70573868302565 13.24683 10.757070000000004 L 13.24683 10.791050000000004 C 13.251911486156033 10.848736743938787 13.268411328172725 10.904837566485856 13.295369999999998 10.956090000000003 L 13.295369999999998 10.980360000000003 C 13.327520544141805 11.028140171649667 13.366810887589164 11.070705272477918 13.411869999999999 11.106570000000003 L 14.868099999999998 12.334650000000003 C 15.143806921121413 12.559888611778259 15.219354580256654 12.949880266644945 15.047699999999999 13.261780000000003 C 14.960556474135592 13.419612044248025 14.88117846064737 13.581608603118394 14.809849999999997 13.747190000000007 C 14.729131052082241 13.932779643576653 14.65784673020138 14.122331590977149 14.59627 14.315120000000006 C 14.53802 14.494720000000004 14.47492 14.688880000000005 14.41181 14.907320000000004 C 14.3487 15.125760000000003 14.30017 15.315060000000004 14.25648 15.499520000000004 C 14.194677260361514 15.82647554671821 13.922948494993216 16.072421113195155 13.59147 16.101430000000004 L 11.58673 16.285890000000006 C 11.517500120936111 16.293549117509528 11.45014439371623 16.313263071436563 11.387709999999998 16.344140000000007 C 11.332876000847456 16.37437664186538 11.283624324600046 16.4137793357455 11.24209 16.460640000000005 C 11.204337056425153 16.5062866908666 11.17626146128601 16.559134269550107 11.159569999999999 16.615970000000004 C 11.146494179548883 16.680029550832554 11.146494179548883 16.746070449167455 11.159569999999999 16.810130000000004 L 11.411979999999998 19.387650000000004 C 11.41897406260328 19.45855753512611 11.43870694251482 19.527620921007074 11.470229999999997 19.591520000000003 C 11.502626776741627 19.654624173736636 11.547165287178043 19.710710208853577 11.601289999999997 19.756560000000004 C 11.650347764426842 19.793010498948927 11.704263596289318 19.822418828514568 11.761469999999997 19.843930000000004 C 11.82089921913902 19.854164945104237 11.881640780860977 19.854164945104237 11.941069999999998 19.843930000000004 L 13.829309999999998 19.664330000000003 C 14.17995297645529 19.642487107081788 14.497933836418365 19.86932839134943 14.591399999999998 20.207990000000002 C 14.644789999999999 20.36332 14.712749999999998 20.542920000000002 14.795269999999999 20.737090000000002 C 14.87779 20.93126 14.955449999999999 21.10115 15.042829999999999 21.26619 L 15.076809999999998 21.33415 C 15.154479999999998 21.484630000000003 15.241849999999998 21.64967 15.338929999999998 21.819560000000003 L 15.664149999999998 22.353510000000004 C 15.836424106311787 22.625184300957866 15.816916475089469 22.976329700714512 15.615609999999998 23.227250000000005 L 14.271029999999998 24.882490000000004 C 14.23565607208615 24.930493694839832 14.206312992743097 24.98266103505222 14.183659999999998 25.037820000000004 C 14.176050382328652 25.084434817947756 14.176050382328652 25.13197518205225 14.183659999999998 25.178590000000003 C 14.189991220333255 25.249622235534193 14.209758275612764 25.318805232269533 14.241909999999997 25.382460000000002 C 14.273286944360638 25.440695830600717 14.316235921190145 25.491903833400052 14.368119999999998 25.532940000000004 C 15.037979999999997 26.091160000000002 15.727259999999998 26.639670000000002 16.392269999999996 27.20275 C 16.436595085188177 27.2346659133408 16.48576221821445 27.259249479853935 16.537889999999997 27.275560000000002 C 16.598735436546523 27.288118200930676 16.661504563453473 27.288118200930676 16.72235 27.275560000000002 L 16.72235 27.275560000000002 C 16.796216781805875 27.26777766048857 16.86834013655971 27.24810734765773 16.93593 27.21731 L 16.9602 27.21731 C 17.00618985871201 27.18639942906836 17.049981505110342 27.152337774605932 17.091260000000002 27.115370000000002 L 18.30478 25.65914 C 18.52974903944033 25.383523208909423 18.918576909600603 25.306162764387334 19.23191 25.47468 C 19.399172083782158 25.564295251523554 19.570906209978997 25.64530097019491 19.74644 25.71738 C 19.93575 25.799899999999997 20.12506 25.86786 20.31437 25.93096 C 20.50368 25.994059999999998 20.68328 26.05231 20.90657 26.11542 C 21.129859999999997 26.178530000000002 21.309459999999998 26.22706 21.498769999999997 26.27075 C 21.82771830587553 26.345519666382696 22.06495573418951 26.632595682616323 22.076409999999996 26.969739999999998 L 22.260869999999997 28.945349999999998 C 22.268602002954548 29.01519590983666 22.290045192193933 29.082828612252225 22.323969999999996 29.14437 C 22.3508220125028 29.20004085614437 22.388820156445316 29.249604540495042 22.435609999999997 29.28999 C 22.482517111998813 29.32581916968397 22.534992832141352 29.35369721272886 22.590939999999996 29.37251 C 22.656682747136852 29.385099162790418 22.72421725286314 29.385099162790418 22.789959999999997 29.37251 L 25.362629999999996 29.120099999999997 C 25.435081709855563 29.113060490207225 25.50573277011021 29.093343993968865 25.571359999999995 29.061849999999996 L 25.571359999999995 29.061849999999996 C 25.62910017671317 29.031678646075495 25.68155921865735 28.992333520301358 25.726689999999994 28.945349999999998 C 25.77045095421151 28.891589165325918 25.804906794355084 28.830884153654477 25.828629999999993 28.765749999999997 C 25.843427877454083 28.708439816210927 25.843427877454083 28.648310183789068 25.828629999999993 28.590999999999998 L 25.653879999999994 26.697909999999997 C 25.617801365046567 26.358197377427384 25.8181197918198 26.03769037066314 26.139289999999995 25.921259999999997 C 26.328599999999994 25.858159999999998 26.517909999999997 25.785349999999998 26.702359999999995 25.707679999999996 L 26.760609999999996 25.707679999999996 C 26.915939999999996 25.639719999999997 27.071269999999995 25.562059999999995 27.246019999999998 25.474679999999996 L 27.275139999999997 25.474679999999996 C 27.4596 25.382449999999995 27.639199999999995 25.285369999999997 27.799379999999996 25.188289999999995 L 28.338179999999994 24.863069999999993 C 28.60857074235981 24.689911447778954 28.959903492682507 24.711499763242227 29.207059999999995 24.916459999999994 L 30.847739999999995 26.256189999999993 C 30.89679776442684 26.292640498948916 30.950713596289315 26.322048828514557 31.007919999999995 26.343559999999993 L 31.007919999999995 26.343559999999993 C 31.058981288811196 26.355732079651894 31.112188711188793 26.355732079651894 31.163249999999994 26.343559999999993 C 31.232646400917183 26.340211366296185 31.300515355168848 26.32200453548774 31.362269999999995 26.290169999999993 C 31.417749735166232 26.254871062888853 31.466963026118062 26.210578425118307 31.507889999999996 26.15910999999999 C 32.066109999999995 25.48924999999999 32.614619999999995 24.79996999999999 33.177699999999994 24.134959999999992 C 33.210443015371894 24.092928014077646 33.23512832156645 24.04520173261895 33.25050999999999 23.994189999999993 C 33.2607392180591 23.933128778831403 33.2607392180591 23.87079122116858 33.25050999999999 23.80972999999999 L 33.25050999999999 23.80972999999999 C 33.24209322050219 23.7359837736029 33.22244954988346 23.663958105435544 33.19225999999999 23.59614999999999 C 33.160849019775085 23.537907020895766 33.11982138098177 23.485390967053444 33.07090999999999 23.44081999999999 L 31.61467999999999 22.25641999999999 C 31.333075874913817 22.033290403958212 31.25313848281457 21.639755721750944 31.42536999999999 21.324439999999992 C 31.514985251523544 21.157177916217833 31.5959909701949 20.985443790020994 31.66806999999999 20.80990999999999 C 31.75058999999999 20.61088999999999 31.82339999999999 20.42157999999999 31.88164999999999 20.24683999999999 C 31.93989999999999 20.072099999999992 31.99814999999999 19.86821999999999 32.06124999999999 19.649789999999992 C 32.124349999999986 19.431359999999994 32.17288999999999 19.25174999999999 32.216579999999986 19.057589999999994 C 32.29269214938268 18.723488900979252 32.58750369101209 18.48483016801476 32.930129999999984 18.479949999999995 L 34.949429999999985 18.266369999999995 C 35.02020379193063 18.2586834223468 35.089148611009 18.2389844194954 35.15329999999999 18.208119999999994 C 35.20454098018891 18.176701412618264 35.25180560380278 18.13921741332685 35.29406999999999 18.096479999999993 C 35.32989916968396 18.049572888001176 35.357777212728855 17.997097167858637 35.37658999999999 17.941149999999993 L 35.37658999999999 17.941149999999993 C 35.38700289291672 17.880104194518253 35.38700289291672 17.817735805481732 35.37658999999999 17.756689999999992 L 35.124179999999996 15.184019999999991 C 35.11578403080813 15.11493960163086 35.09610576203129 15.04770579816363 35.065929999999994 14.98499999999999 L 35.065929999999994 14.95587999999999 C 35.03249265302165 14.904771954110906 34.9915888923722 14.858960416328735 34.944579999999995 14.819969999999989 C 34.89670420656761 14.78170751184005 34.84248992173012 14.752136391436428 34.7844 14.732599999999989 L 34.7844 14.732599999999989 C 34.731473495065806 14.722614906244859 34.67714650493419 14.722614906244859 34.62422 14.732599999999989 L 32.71656 14.86850999999999 C 32.37767002167387 14.901057885228923 32.05915360960212 14.701983589749947 31.93991 14.38309999999999 C 31.876810000000003 14.20349999999999 31.80885 14.01418999999999 31.72148 13.82002999999999 C 31.63411 13.62586999999999 31.55159 13.42198999999999 31.46907 13.26180999999999 L 31.46907 13.22782999999999 C 31.386758871626885 13.061517102507864 31.296031371471205 12.899503947776713 31.197239999999997 12.74241999999999 C 31.10016 12.577379999999991 30.988509999999998 12.41233999999999 30.876869999999997 12.25700999999999 C 30.689681461703888 11.981385683077031 30.707499499518555 11.615151392897392 30.92056 11.358999999999991 L 32.25058 9.71345999999999 C 32.292690180539566 9.66298744632966 32.32555496849642 9.605474067405169 32.34766 9.54356999999999 C 32.357937060312764 9.497209382277257 32.357937060312764 9.449160617722724 32.34766 9.40279999999999 C 32.33765658817069 9.331907943192688 32.316352952299226 9.263077955155987 32.28456 9.19892999999999 L 32.28456 9.16494999999999 C 32.25605656231864 9.121645940968168 32.22175802153351 9.082448569951223 32.18262 9.04844999999999 L 30.36234 7.55338999999999 C 30.264682196788296 7.527627536755633 30.173658898888803 7.4812890851786005 30.09537 7.41747999999999 z M 50.181560000000005 19.358530000000002 C 50.02694676573711 19.226875912095906 49.825425244646205 19.163789878255063 49.623340000000006 19.183780000000002 C 49.42266389914598 19.20651185891413 49.23842685167033 19.305582284925368 49.108810000000005 19.46046 L 48.366130000000005 20.35847 C 48.130122315083426 20.236300046066322 47.88507803032018 20.132441146650862 47.633160000000004 20.047810000000002 C 47.37104 19.965290000000003 47.14775 19.892480000000003 46.86621 19.82938 L 46.74971 18.57703 C 46.73196803558364 18.377050046227374 46.636030047190204 18.19214922153518 46.48274 18.0625 C 46.32958177197793 17.932606809650956 46.12823144313188 17.874323390465673 45.92937 17.90232 L 44.34694 18.05765 C 44.15865296341136 18.083111875617487 43.98609038246944 18.176295171628066 43.861529999999995 18.31977 C 43.728340698743516 18.47353155574545 43.66504306782125 18.675729000858027 43.68677999999999 18.877989999999997 L 43.79356999999999 20.028409999999997 C 43.537150943463956 20.11137206298477 43.28861308679264 20.216960828720936 43.05088999999999 20.34393 C 42.81520055678467 20.460301544837574 42.588102224112966 20.593318335361943 42.37131999999999 20.741970000000002 L 41.37137999999999 19.93619 C 41.224772439034254 19.800328766162526 41.0264086670462 19.734798593905868 40.827719999999985 19.75659 C 40.626004205878345 19.779578630505988 40.441309348442765 19.88063977400085 40.313189999999985 20.03813 L 39.34236999999998 21.2468 C 39.21112619054505 21.401522373817645 39.14793284223322 21.602692252153158 39.16712627122379 21.80467136682493 C 39.18631970021437 22.006650481496703 39.2862728799444 22.19231706729566 39.44430999999998 22.31955 L 40.28891999999998 23.06223 C 40.166310680555235 23.297405606910704 40.064002536685585 23.54261930238221 39.98310999999998 23.7952 C 39.89573999999998 24.05732 39.822929999999985 24.280610000000003 39.75981999999998 24.562150000000003 L 38.507469999999984 24.67865 C 38.307933136396 24.697901665522693 38.12356844698057 24.79356147376174 37.99293999999998 24.94562 C 37.87256835230884 25.10492318148296 37.82498057427554 25.307612403623548 37.861879999999985 25.50384 L 38.017209999999984 27.08142 C 38.036686296629036 27.27952086872016 38.132420180024674 27.462289141144367 38.284179999999985 27.5911 C 38.43555151450558 27.72511290323588 38.63666654642594 27.788623487163598 38.837549999999986 27.76585 L 39.98796999999998 27.65906 C 40.06745387926984 27.912991635446986 40.168124357667324 28.15979905319489 40.28891999999998 28.39688 C 40.4092106354093 28.6367169285797 40.54207542280362 28.87003809665516 40.686959999999985 29.095869999999998 L 39.881179999999986 30.066689999999998 C 39.74650070264665 30.21379294340675 39.6826861402289 30.41232470308647 39.70642999999998 30.610349999999997 C 39.73434235326149 30.80118644394235 39.83313032769273 30.97450099746507 39.98310999999998 31.09576 L 41.21118999999998 32.1491 C 41.36699556581546 32.27760097129574 41.569174381535866 32.33561573734155 41.76940999999998 32.309279999999994 C 41.97060214510198 32.28989389877721 42.15742583196055 32.19648205534792 42.29364999999998 32.04715999999999 L 43.041179999999976 31.134589999999992 C 43.27582324300075 31.259641191883617 43.52111042584035 31.36360304055539 43.77414999999998 31.44524999999999 C 44.025585516683506 31.53211840866745 44.28162511543203 31.605039367732108 44.54109999999998 31.663679999999992 L 44.65759999999998 32.92088999999999 C 44.6785365243794 33.11855172256125 44.77400264803173 33.3008088072641 44.92456999999998 33.430569999999996 C 45.07931493019959 33.56133951728603 45.28181402799039 33.621209194294 45.48278999999998 33.59560999999999 L 47.06036999999998 33.440279999999994 C 47.25788836011771 33.41887104672662 47.439982076551594 33.32349049525049 47.57004999999998 33.173309999999994 C 47.70323930125646 33.01954844425454 47.766536932178724 32.817350999141965 47.744799999999984 32.615089999999995 L 47.63315999999998 31.464669999999995 C 47.89023391653652 31.383471321497414 48.13893153051183 31.27781468450505 48.37583999999998 31.149149999999995 C 48.61445413860345 31.031299915125423 48.84620192305357 30.90002970077062 49.069969999999984 30.755969999999994 L 50.04078999999999 31.561749999999993 C 50.19455155574544 31.694939301256476 50.396749000858016 31.758236932178733 50.599009999999986 31.736499999999992 C 50.800949745965106 31.717884297837575 50.9866602368108 31.618021552016756 51.113539999999986 31.459819999999993 L 52.12318999999999 30.236589999999993 C 52.2518707623378 30.080726444580954 52.31146796608007 29.879148941714924 52.288229999999984 29.678369999999994 C 52.269442831274255 29.47594521807732 52.17392387914644 29.288377867950018 52.021259999999984 29.154129999999995 L 51.10868999999998 28.416309999999996 C 51.24627025137499 28.183318553734658 51.36165723218968 27.937916988832885 51.45332999999998 27.683339999999994 C 51.53954246468698 27.433344169252983 51.6124545734029 27.17895791767897 51.67175999999998 26.921249999999993 L 52.92896999999998 26.804749999999995 C 53.11853418097673 26.779802419297482 53.29179521677652 26.68451081276389 53.41437999999998 26.537779999999994 C 53.545691788991235 26.383328004577482 53.60563357609935 26.18058500651949 53.57941999999998 25.979559999999996 L 53.42408999999998 24.401979999999995 C 53.39692740880766 24.213149470047842 53.30204503968785 24.040632517602052 53.15711999999998 23.916569999999993 C 53.00414385488254 23.7816363150827 52.80185804148884 23.716553494536125 52.59889999999998 23.736969999999992 L 51.44847999999998 23.848609999999994 C 51.36196715438969 23.593530880147764 51.25649972518302 23.345278628869842 51.13295999999998 23.10592999999999 C 51.02168794002802 22.867528683876397 50.888431278035554 22.640020820872117 50.73491999999998 22.426359999999992 L 51.545549999999984 21.426419999999997 C 51.677464764975916 21.277725895900275 51.74086997620167 21.080467657645666 51.72029999999999 20.882759999999998 C 51.69756814108586 20.682083899145976 51.59849771507462 20.49784685167032 51.44361999999999 20.368229999999997 L 50.230099999999986 19.373139999999996 L 50.19126999999999 19.373139999999996 L 50.18155999999999 19.358579999999996 z M 45.385720000000006 22.67387 C 45.797468664952866 22.636551416391864 46.21255902594789 22.677730275074815 46.60895000000001 22.79522 C 46.98892431393086 22.916120025851214 47.3429005679533 23.1071009380063 47.65258000000001 23.35829 C 47.960331291950105 23.612574213120002 48.2158425297805 23.924133690791333 48.40496000000001 24.27571 C 48.60280109402135 24.63658433154792 48.72191467254677 25.03529052829797 48.75445000000001 25.44555 C 48.79200577089851 25.857299638381303 48.75082248038955 26.272434672985984 48.63310000000001 26.668779999999998 C 48.4068592851168 27.439032106798074 47.88271752778966 28.08722035076896 47.176870000000015 28.46965 C 46.814687508947685 28.6635474445927 46.416486658281684 28.78085916343761 46.007030000000015 28.81429 C 45.595274264370545 28.854299992901414 45.179669110906204 28.8130700644555 44.783800000000014 28.69294 C 44.40260990826466 28.57374436550063 44.047024416348435 28.384427513202567 43.735320000000016 28.13472 C 43.43028177772732 27.87711658225204 43.17665749013074 27.56420257483484 42.98779000000002 27.21244 C 42.77902828062487 26.851065695329677 42.65148533198076 26.44855603767856 42.61403000000002 26.0329 C 42.48050935736767 24.793647079098555 43.114886275879584 23.597944505544294 44.21588000000002 23.01366 C 44.57629098543046 22.814712578396943 44.97524107524363 22.695526136756374 45.38572000000002 22.664170000000002 L 45.38572000000002 22.67388 z M 30.36717000000001 5.888439999999999 C 30.537038460837607 5.941807133880161 30.699979402071236 6.015129046889085 30.85258000000001 6.106869999999999 C 30.959529381967535 6.13247795268841 31.059172080591768 6.182297591396258 31.143830000000012 6.252489999999999 L 33.10003000000001 7.878609999999999 C 33.28150413678265 8.027337342990215 33.43587465920565 8.206344626706375 33.55631000000001 8.40771 L 33.59514000000001 8.47081 C 33.71886227626196 8.699761886505128 33.797932555787796 8.950146580237995 33.828140000000005 9.20863 C 33.862007167506725 9.480006723068099 33.83379068347087 9.755531183882521 33.74562 10.01441 C 33.668604565385486 10.241844513056526 33.551923152896485 10.45384418480782 33.400980000000004 10.64059 L 32.40104 11.883239999999999 L 32.46414 11.98518 C 32.59145018571981 12.198517356441203 32.706516218426465 12.418927036546904 32.80878 12.64534 Q 32.98353 12.98513 33.10003 13.271519999999999 L 33.138859999999994 13.368599999999999 L 34.449459999999995 13.242389999999999 C 34.703863521568884 13.212917552549378 34.961609786607134 13.236049500375692 35.2067 13.310349999999996 L 35.245529999999995 13.310349999999998 C 35.47057452878184 13.384927500914664 35.68084706990092 13.49827743685269 35.86684999999999 13.645279999999998 L 35.93480999999999 13.703529999999997 C 36.10810999751466 13.855670084998831 36.25420600157 14.036239889784248 36.36681999999999 14.237479999999998 L 36.40564999999999 14.300579999999998 C 36.51724332211045 14.520630074648293 36.587966400706414 14.759109122408464 36.61437999999999 15.004419999999996 C 36.61437999999999 15.654869999999997 36.77941999999999 16.916929999999997 36.86678999999999 17.5965 C 36.89581571116759 17.841994334769158 36.87769450299802 18.090773168858963 36.81339999999999 18.32947 L 36.81339999999999 18.373160000000002 C 36.73928875891361 18.623456371311846 36.61546780609065 18.85623881030711 36.449339999999985 19.05759 L 36.449339999999985 19.05759 C 36.28985295883296 19.255085884969183 36.0937122631912 19.419909399738707 35.87169999999998 19.543000000000003 C 35.64125774297232 19.661364242662025 35.39128377944804 19.73701506036192 35.133879999999984 19.76629 L 33.590279999999986 19.9022 L 33.55144999999999 20.04297 C 33.49805999999999 20.23713 33.43009999999999 20.45557 33.342719999999986 20.70313 C 33.25533999999998 20.95069 33.18253999999999 21.188540000000003 33.10001999999999 21.36814 L 33.06118999999999 21.45066 L 34.124239999999986 22.309829999999998 C 34.32599357100025 22.48427664252575 34.491003286815065 22.6971395498596 34.60964999999999 22.93601 C 34.69827578323523 23.149118474230637 34.75077134299221 23.37550536445668 34.76497999999999 23.60587 L 34.76497999999999 23.63014 C 34.7976060016362 23.890607404403156 34.77612461819085 24.15500544644483 34.70187999999999 24.40679 C 34.634480154791476 24.643281709922604 34.52424731801472 24.86539467326989 34.37665999999999 25.06209 L 32.68257999999999 27.11051 C 32.52078196942264 27.309517801761036 32.32115871048305 27.474497415139773 32.09523999999999 27.595920000000003 C 31.866379833593875 27.723932128606666 31.613530409938207 27.803258239060387 31.35255999999999 27.828920000000004 C 31.093649773166515 27.859006394628715 30.831345117508725 27.837561170772783 30.58075999999999 27.765820000000005 L 30.54192999999999 27.765820000000005 C 30.32100568403451 27.69083194732464 30.114253434354776 27.57925158276121 29.93030999999999 27.435740000000006 L 28.67309999999999 26.411530000000006 L 28.54688999999999 26.484340000000007 C 28.33330999999999 26.610550000000007 28.12457999999999 26.72219000000001 27.92556999999999 26.819270000000007 C 27.72655999999999 26.916350000000005 27.55665999999999 27.003730000000008 27.35763999999999 27.091100000000008 L 27.18288999999999 27.14935000000001 L 27.31879999999999 28.45995000000001 C 27.34889011508204 28.729752574749597 27.3207503348328 29.00287076182208 27.23627999999999 29.26087000000001 C 27.15439599281274 29.500015340901488 27.029358766613164 29.722120717086963 26.86736999999999 29.91617000000001 L 26.83824999999999 29.94529000000001 C 26.681178028605682 30.12193302656994 26.49581039798854 30.271211234435256 26.28973999999999 30.38701000000001 L 26.241199999999992 30.38701000000001 C 26.02233779137338 30.497268301817993 25.785693862880738 30.567934101320517 25.542209999999994 30.59574000000001 C 24.891759999999994 30.59574000000001 23.629699999999993 30.76563000000001 22.950129999999994 30.85301000000001 C 22.689592192293865 30.88174221132334 22.42596259708504 30.860323261400364 22.173479999999994 30.78991000000001 C 21.922796862554367 30.714344753269078 21.68998641546312 30.588859163747237 21.489049999999995 30.42100000000001 L 21.464779999999994 30.42100000000001 C 21.27807135982608 30.255406027474045 21.121975379528283 30.058233048414184 21.003639999999994 29.83851000000001 C 20.88240841321318 29.609236871821707 20.80659048980425 29.35871073876794 20.780349999999995 29.10069000000001 L 20.639579999999995 27.56194000000001 L 20.503669999999996 27.52311000000001 L 19.843509999999995 27.31438000000001 C 19.610509999999994 27.23671000000001 19.358099999999993 27.15420000000001 19.178499999999996 27.06682000000001 L 19.086269999999995 27.02799000000001 L 18.212529999999994 28.09104000000001 C 18.05239188756234 28.272375680404537 17.85977554203805 28.422187263073155 17.644599999999993 28.53276000000001 L 17.591209999999993 28.56674000000001 C 17.377949426986433 28.66663580369215 17.150228281233193 28.732165708926097 16.916489999999992 28.76090000000001 L 16.89221999999999 28.76090000000001 C 16.630136180472245 28.793229938067892 16.364211937544216 28.771758914371766 16.11070999999999 28.69780000000001 C 15.8775191539974 28.62723237275992 15.658865081150195 28.51543798876171 15.46511999999999 28.367720000000013 L 13.41183999999999 26.673640000000013 C 13.213890638919562 26.510778094430965 13.049096762738346 26.31137957516627 12.926429999999991 26.086300000000012 C 12.802632976023151 25.859113055899197 12.723538780205692 25.61029900994073 12.69342999999999 25.35333000000001 C 12.661990276637585 25.09153643217521 12.690201486835466 24.82602217623503 12.775949999999991 24.57668000000001 C 12.84776146052668 24.352907125741364 12.9596015617746 24.144030286137923 13.106029999999992 23.96021000000001 L 14.130239999999992 22.70300000000001 L 14.076849999999991 22.58165000000001 C 13.970059999999991 22.40205000000001 13.868119999999992 22.20789000000001 13.766189999999991 22.00401000000001 L 13.766189999999991 22.00401000000001 C 13.644839999999991 21.780720000000013 13.54289999999999 21.567140000000013 13.450669999999992 21.34871000000001 L 13.406979999999992 21.23707000000001 L 12.106079999999992 21.35842000000001 C 11.838224471618503 21.389977686140156 11.566714133451786 21.363487292122787 11.310009999999991 21.28075000000001 C 11.083824770059733 21.206532315102745 10.87321581652694 21.091353636932222 10.68868999999999 20.940960000000008 L 10.61587999999999 20.887570000000007 C 10.41801627526212 20.717007758715745 10.253439612529453 20.51128777791668 10.13046999999999 20.280810000000006 C 10.019533664591162 20.062217953077134 9.94883074836223 19.825449728984474 9.921739999999991 19.581820000000008 C 9.921739999999991 18.926520000000007 9.75184999999999 17.683870000000006 9.66446999999999 16.99459000000001 C 9.624525129658597 16.72741835166829 9.639390326303744 16.45491129520157 9.70815999999999 16.193670000000008 C 9.783725246730922 15.942986862554381 9.909210836252761 15.710176415463135 10.07706999999999 15.509240000000007 L 10.07706999999999 15.509240000000007 C 10.240875819867732 15.314138615786522 10.438118670057278 15.149769009594987 10.659559999999988 15.023830000000007 C 10.889180318092617 14.904288291823876 11.139689572427889 14.8301255740547 11.39737999999999 14.805400000000008 L 12.93612999999999 14.664630000000008 L 12.97495999999999 14.523860000000008 C 13.03320999999999 14.334550000000007 13.10116999999999 14.111260000000009 13.18368999999999 13.868560000000008 C 13.266209999999989 13.625860000000007 13.348729999999989 13.383150000000008 13.43124999999999 13.198700000000008 L 13.47007999999999 13.106470000000007 L 12.474989999999991 12.261860000000008 C 12.282429213507918 12.11255927498271 12.118050320148539 11.930100430414132 11.989579999999991 11.723060000000007 L 11.96045999999999 11.674520000000008 C 11.849329558948797 11.459798721323004 11.780138590164553 11.225865572926457 11.75658999999999 10.985240000000008 L 11.75658999999999 10.946410000000007 C 11.728974829503017 10.683335632639066 11.755405419457253 10.417392921745085 11.83425999999999 10.164900000000008 C 11.914881825465471 9.914359641134308 12.04347747935475 9.681897744268216 12.21287999999999 9.480470000000006 L 13.83899999999999 7.495150000000006 C 13.987570756516932 7.312983304404868 14.16860999968486 7.159923007479505 14.372949999999989 7.043720000000006 L 14.43119999999999 7.004890000000006 C 14.659017614926913 6.878510291657398 14.909938928099528 6.799270550298775 15.169019999999987 6.771890000000006 C 15.435594776301132 6.738024489686135 15.706390058206193 6.766266984394062 15.960239999999988 6.854410000000006 C 16.187309271253866 6.932252713789734 16.399170669129795 7.048858022429358 16.58641999999999 7.199050000000006 L 17.83391999999999 8.203850000000006 L 17.96012999999999 8.106770000000006 C 18.15914999999999 7.990270000000006 18.363019999999988 7.883480000000006 18.56688999999999 7.781550000000006 C 18.770759999999992 7.679620000000007 18.99404999999999 7.567970000000006 19.19306999999999 7.480600000000006 L 19.30956999999999 7.436910000000006 L 19.17850999999999 6.131160000000007 C 19.14903755254937 5.876756478431119 19.172169500375684 5.61901021339287 19.246469999999988 5.373920000000006 L 19.246469999999988 5.335090000000006 C 19.321047500914652 5.110045471218163 19.43439743685268 4.899772930099079 19.581399999999988 4.7137700000000065 L 19.65420999999999 4.6749400000000065 C 19.82126501866697 4.477371190234112 20.02375408726579 4.312744745566912 20.251259999999988 4.189530000000007 C 20.470359936053125 4.073852406981488 20.70900469875115 3.9997912915061944 20.955099999999987 3.9711000000000065 C 21.605549999999987 3.9711000000000065 22.86760999999999 3.8060600000000067 23.547179999999987 3.7186900000000067 C 23.807667482075875 3.687026402668137 24.071870273884702 3.708491922739131 24.323829999999987 3.781790000000007 C 24.57412637131183 3.855901241086386 24.806908810307092 3.9797221939093417 25.008259999999986 4.145850000000006 L 25.008259999999986 4.1458500000000065 C 25.203506604708164 4.307616318792256 25.367946800906186 4.503300863675602 25.493669999999987 4.723490000000005 C 25.617671874667447 4.9592502537646554 25.696685442738527 5.216040958855402 25.726669999999988 5.480730000000007 L 25.862579999999987 7.024330000000006 L 26.003349999999987 7.063160000000006 C 26.192659999999986 7.116550000000006 26.415949999999988 7.184510000000006 26.663509999999988 7.267030000000006 L 27.328519999999987 7.514590000000006 L 27.425599999999985 7.558280000000006 L 28.265359999999983 6.543780000000006 C 28.42930323011708 6.344993135030315 28.630462377512785 6.180108532299228 28.85755999999998 6.058370000000006 C 29.08986152679234 5.928570045660539 29.345578231030053 5.846081882606639 29.60993999999998 5.815670000000006 C 29.872643303797066 5.7831310495831865 30.13927877208966 5.807972354808179 30.39144999999998 5.888480000000006 L 30.36717999999998 5.888480000000006 z M 22.673440000000006 11.52404 C 23.046538776813094 11.492519412429639 23.42163122318692 11.49251941242964 23.79473000000001 11.52404 C 24.183177710533247 11.562087450647454 24.56690323801685 11.638506967599955 24.940290000000005 11.75218 L 24.940290000000005 11.75218 C 25.296010702838153 11.863843047138655 25.64052911583057 12.008474024231422 25.969360000000005 12.184189999999997 L 26.013050000000007 12.208459999999999 C 26.320649461921523 12.378742095987938 26.61298058451181 12.575251082119031 26.886790000000005 12.795799999999996 L 26.88679000000001 12.795799999999998 C 27.456645352957228 13.278794752791235 27.93225445324064 13.863020640181986 28.289620000000006 14.518999999999995 C 28.477950339341337 14.855444509306418 28.62775607331876 15.212045757693497 28.73620000000001 15.582049999999999 C 28.84923955576458 15.954902878688076 28.920864805531235 16.339072843678665 28.94978000000001 16.72761 L 28.94978000000001 16.72761 C 28.98368170531911 17.098984574823255 28.98368170531911 17.47267542517674 28.94978000000001 17.844049999999996 C 28.916672300202652 18.23280946555038 28.841811030110154 18.61687537341531 28.726490000000013 18.98961 L 28.726490000000013 19.038149999999998 C 28.616428381733336 19.373504671753466 28.47672683359112 19.69839401650716 28.309040000000014 20.008969999999998 C 28.133593598423975 20.333218596197046 27.930592647397773 20.64178164767118 27.702280000000012 20.93125 L 27.653740000000013 20.98464 C 27.180974536998466 21.539054051807184 26.60995624927659 22.001463703162074 25.969370000000012 22.34864 C 25.629855717454813 22.53413551347536 25.27196212239569 22.68380132645551 24.90147000000001 22.79522 C 24.52904262567596 22.903167188195834 24.147013378337512 22.97469615405617 23.760760000000012 23.0088 C 23.381176439507968 23.04031729143293 22.999633560492057 23.04031729143293 22.620050000000013 23.0088 C 22.23151719504482 22.971328298477594 21.847734789646974 22.894897454202773 21.474490000000014 22.78066 L 21.474490000000014 22.78066 C 21.120662516480387 22.6680946501341 20.777839152781198 22.523492350457584 20.45028000000001 22.34865 C 20.126276915811605 22.170949149001245 19.81776654584666 21.96635714605425 19.528000000000013 21.73703 L 19.528000000000013 21.73703 C 19.24526502759905 21.49959004571924 18.98525885343665 21.236333166669034 18.751350000000013 20.950670000000002 C 18.514096132686173 20.65910654825775 18.302939597469365 20.34724551519852 18.120320000000014 20.018690000000003 C 17.936050114885855 19.679192884558923 17.78799582330332 19.32125759075065 17.678600000000014 18.95079 C 17.565560444235444 18.577937121311923 17.49393519446879 18.193767156321336 17.465020000000013 17.80523 L 17.465020000000013 17.80523 C 17.431118294680914 17.433855425176745 17.431118294680914 17.060164574823258 17.465020000000013 16.688790000000004 C 17.498127699797372 16.300030534449622 17.57298896988987 15.915964626584687 17.688310000000012 15.543230000000001 L 17.688310000000012 15.543230000000001 C 17.799043370842973 15.187169779082316 17.94371058519802 14.842565047070677 18.120320000000014 14.51416 L 18.144590000000015 14.47047 C 18.3125150685647 14.159914588799028 18.509153535752063 13.865767091802153 18.731930000000016 13.591880000000002 L 18.770760000000017 13.54334 C 18.998544369001483 13.27185796077355 19.252147246079403 13.023131289245065 19.528000000000016 12.80066 C 19.81966356784842 12.56496268503 20.13152977037683 12.355425593355033 20.459980000000016 12.174480000000003 C 20.79765629351136 11.988685496282203 21.15397449869386 11.838998666810024 21.523030000000013 11.727900000000002 C 21.89720858497561 11.62038026631822 22.280805311949795 11.548861891944858 22.668590000000016 11.514320000000001 L 22.673440000000017 11.524030000000002 z M 23.644260000000006 13.01424 C 23.35686893477767 12.98753723570005 23.067621065222344 12.98753723570005 22.780230000000007 13.014239999999997 L 22.780230000000007 13.01424 C 22.49583267499987 13.03789927525716 22.21451347628554 13.089934751031546 21.940470000000005 13.169569999999998 C 21.67267496429964 13.248983575659251 21.413983007284394 13.356365205963701 21.16867000000001 13.48994 C 20.917450384878936 13.631159685809793 20.678735016304778 13.793551707475524 20.455120000000008 13.975349999999999 C 20.255812476535095 14.13727044617578 20.07068434033169 14.315901684453616 19.901750000000007 14.509300000000001 L 19.901750000000007 14.5093 C 19.737354122131684 14.714618295727417 19.591177021857803 14.933882273133683 19.464880000000008 15.1646 L 19.464880000000008 15.20343 C 19.334854494351273 15.450424891430561 19.227620583709303 15.70876097855942 19.144510000000007 15.975230000000005 C 19.04359267091392 16.25506818702411 18.97201527496771 16.544631898136586 18.930930000000007 16.839260000000003 C 18.90663618812855 17.126757700691606 18.906636188128548 17.4157922993084 18.930930000000007 17.703290000000003 L 18.930930000000007 17.703290000000003 C 18.954267764983385 17.989704002638877 19.007962311250864 18.272828929115192 19.091110000000008 18.547900000000002 C 19.16981629199686 18.821340576776493 19.27890301980307 19.085104918691783 19.41633000000001 19.33426 C 19.555826272901665 19.58502251426063 19.718328553373947 19.822276312432702 19.90174000000001 20.04296 C 20.072636481424283 20.25585201146486 20.264530619037465 20.450999216706496 20.474520000000012 20.62545 C 20.688882149000502 20.795846543331102 20.917921094262788 20.946913929418432 21.15895000000001 21.07688 C 21.408038237790635 21.207336252544003 21.667877701539265 21.316143296129052 21.935600000000015 21.4021 C 22.208584416952906 21.487884954475266 22.490214301255794 21.543234335376177 22.77536000000001 21.567140000000002 C 23.06761388661116 21.593859625637208 23.36169611338886 21.593859625637208 23.65395000000001 21.567140000000002 C 23.939879895455398 21.54304149069592 24.22276493402572 21.4910168485047 24.49856000000001 21.411810000000003 C 24.75659686624484 21.3311631308641 25.005506691692133 21.223790856427534 25.24124000000001 21.091440000000002 C 25.49353463986016 20.95196211267912 25.732400239026887 20.789467892944668 25.95479000000001 20.60603 C 26.15450444448655 20.441023790825167 26.339644506637157 20.2591323869023 26.50816000000001 20.06237 L 26.50816000000001 20.06237 C 26.691184597770558 19.844850153525204 26.853681153844697 19.61085524668303 26.993570000000012 19.363380000000003 C 27.117336708247926 19.125813781963892 27.22281556239415 18.879159344317564 27.309090000000012 18.625560000000004 L 27.309090000000012 18.596440000000005 C 27.39340974963057 18.321188496539932 27.45031638823061 18.038276518036312 27.47898000000001 17.751830000000005 C 27.50327381187147 17.464332299308403 27.50327381187147 17.17529770069161 27.47898000000001 16.887800000000006 L 27.47898000000001 16.887800000000006 C 27.455642235016633 16.60138599736113 27.401947688749154 16.318261070884816 27.31880000000001 16.043190000000003 C 27.23973002991167 15.775273208700161 27.13233361784263 15.516545641091197 26.99843000000001 15.271390000000006 C 26.860087796288262 15.019915276295896 26.697512555641577 14.782554956058771 26.513020000000008 14.562690000000005 C 26.342123518575736 14.349797988535144 26.150229380962553 14.15465078329351 25.940240000000006 13.980200000000005 C 25.737388665191958 13.818552666452776 25.52144813148468 13.67405155899002 25.294650000000004 13.548190000000005 L 25.255820000000007 13.548190000000005 C 25.006845239737924 13.41749254693172 24.746984547424503 13.308676613944955 24.479170000000003 13.222970000000005 C 24.207699234742265 13.137761204773868 23.927743329810408 13.082420538167145 23.644270000000002 13.057930000000006 L 23.644270000000006 13.014240000000006 z M 7.887890000000006 45.37644 C 8.587263930828149 45.37447307134205 9.218867351932765 45.794252006215466 9.487870174280435 46.439825584902934 C 9.756872996628104 47.0853991635904 9.61022954183349 47.82946430380355 9.116392420171646 48.32469421121939 C 8.622555298509802 48.81992411863522 7.87890610955576 48.968662545016954 7.232577483157382 48.70147895527324 C 6.586248856759003 48.43429536552952 6.164692765902855 47.803876696725524 6.1646900000000056 47.1045 C 6.164686233095835 46.15201354614434 6.935407313041063 45.37911877513102 7.887890000000007 45.37644 z" stroke-linecap="round" />
</g>
<g transform="matrix(NaN NaN NaN NaN 0 0)"  >
<g style=""   >
</g>
</g>
<g transform="matrix(NaN NaN NaN NaN 0 0)"  >
<g style=""   >
</g>
</g>
</svg>